<svg width="143" height="36" viewBox="0 0 143 36" fill="none" xmlns="http://www.w3.org/2000/svg">
<path d="M0 0.513367V12.8121L13.0332 22.4535L14.8626 20.6374C16.3182 19.1818 16.3182 16.8049 14.8626 15.3493L0 0.513367Z" fill="url(#paint0_linear_8041_4148)"/>
<path d="M0 23.1746V35.4733L0.0133545 35.4867L14.876 20.624C16.3315 19.1685 16.3315 16.8182 14.876 15.376L11.3373 11.8373L5.19458 17.98L0 23.1746Z" fill="url(#paint1_linear_8041_4148)"/>
<g opacity="0.5">
<path d="M37.9111 16.6312L32.8902 5.58775L27.8558 16.6312H25.2118L32.8902 0.5L40.5819 16.6312H37.9111Z" fill="#F1F2F2"/>
<path d="M116.164 16.6312L111.129 5.58775L106.095 16.6312H103.451L111.129 0.5L118.821 16.6312H116.164Z" fill="#F1F2F2"/>
<path d="M139.399 16.6312L134.365 5.58775L129.33 16.6312H126.7L134.365 0.5L142.056 16.6312H139.399Z" fill="#F1F2F2"/>
<path d="M42.0107 16.6313V0.860565H46.8581C52.3464 0.860565 55.4311 4.61295 55.4311 8.73924C55.4311 12.8922 52.3464 16.6179 46.8581 16.6179H42.0107V16.6313ZM44.3876 14.468H46.8714C50.9042 14.468 52.9607 11.7705 52.9607 8.75259C52.9607 5.76136 50.9309 3.03721 46.8714 3.03721H44.3876V14.468Z" fill="#F1F2F2"/>
<path d="M55.6581 0.860565H58.3155L62.9091 11.5034L67.4494 0.860565H70.1068L62.8557 16.9918L55.6581 0.860565Z" fill="#F1F2F2"/>
<path d="M70.3339 8.75256C70.3339 4.23902 74.0863 0.580109 78.5865 0.580109C83.1267 0.580109 86.8657 4.23902 86.8657 8.75256C86.8657 13.2661 83.1134 16.9384 78.5865 16.9384C74.0863 16.9384 70.3339 13.2795 70.3339 8.75256ZM84.3953 8.75256C84.3953 5.36072 81.8715 2.75676 78.5731 2.75676C75.3015 2.75676 72.791 5.36072 72.791 8.75256C72.791 12.1577 75.3015 14.7484 78.5731 14.7484C81.8715 14.735 84.3953 12.1577 84.3953 8.75256Z" fill="#F1F2F2"/>
<path d="M88.8154 8.75256C88.8154 4.11883 92.5678 0.580109 97.295 0.580109C99.5117 0.580109 101.314 1.32791 102.409 2.04901V4.77316C101.168 3.58469 99.1778 2.77011 97.2816 2.77011C93.7963 2.77011 91.2858 5.38743 91.2858 8.76591C91.2858 12.131 93.7963 14.7617 97.2816 14.7617C99.2179 14.7617 101.168 13.9338 102.409 12.772V15.4828C101.274 16.2039 99.525 16.9517 97.2816 16.9517C92.5678 16.9384 88.8154 13.3729 88.8154 8.75256Z" fill="#F1F2F2"/>
<path d="M121.559 16.6313V3.06392H117.005V0.860565H128.529V3.06392H123.962V16.6313H121.559Z" fill="#F1F2F2"/>
<path d="M25.2118 35.4867V34.7255H28.9375C28.9375 34.7255 31.6483 34.819 33.5712 33.1498C34.5727 32.2818 35.4407 31.0532 35.4274 28.8499C35.3873 22.4 29.1511 22.5603 29.1511 22.5603H25.2251V21.7991H28.9375C34.2789 21.7991 36.2686 25.458 36.2686 28.6496C36.2686 31.8545 34.2923 35.5 28.9375 35.5C28.3232 35.5 27.7223 35.5 27.108 35.5C26.467 35.4867 25.8394 35.4867 25.2118 35.4867Z" fill="#F1F2F2"/>
<path d="M48.9812 35.4866L43.3326 23.1345L37.6974 35.4866H36.7893L43.3326 21.3451L49.8893 35.4866H48.9812Z" fill="#F1F2F2"/>
<path d="M68.6378 35.4866L62.9759 23.1345L57.3406 35.4866H56.4459L62.9759 21.3451L69.5459 35.4866H68.6378Z" fill="#F1F2F2"/>
<path d="M52.48 35.4867V22.5603H48.0867V21.7991H57.7147V22.5603H53.3079V35.4867H52.48Z" fill="#F1F2F2"/>
</g>
<defs>
<linearGradient id="paint0_linear_8041_4148" x1="-0.619878" y1="5.97751" x2="13.771" y2="20.4656" gradientUnits="userSpaceOnUse">
<stop stop-color="#AA1E58"/>
<stop offset="0.1689" stop-color="#AE1E58"/>
<stop offset="0.334" stop-color="#BA1D57"/>
<stop offset="0.4976" stop-color="#CD1B55"/>
<stop offset="0.6594" stop-color="#E91952"/>
<stop offset="0.6662" stop-color="#EA1952"/>
</linearGradient>
<linearGradient id="paint1_linear_8041_4148" x1="7.98935" y1="11.833" x2="7.98935" y2="35.4859" gradientUnits="userSpaceOnUse">
<stop stop-color="#801A4F"/>
<stop offset="1" stop-color="#E33FFF"/>
</linearGradient>
</defs>
</svg>
